<?xml version="1.0" encoding="UTF-8" standalone="no"?>
<!-- Created with Inkscape (http://www.inkscape.org/) -->

<svg
   xmlns:dc="http://purl.org/dc/elements/1.1/"
   xmlns:cc="http://creativecommons.org/ns#"
   xmlns:rdf="http://www.w3.org/1999/02/22-rdf-syntax-ns#"
   xmlns:svg="http://www.w3.org/2000/svg"
   xmlns="http://www.w3.org/2000/svg"
   xmlns:xlink="http://www.w3.org/1999/xlink"
   xmlns:sodipodi="http://sodipodi.sourceforge.net/DTD/sodipodi-0.dtd"
   xmlns:inkscape="http://www.inkscape.org/namespaces/inkscape"
   width="250"
   height="121.33284"
   id="svg2"
   version="1.1"
   inkscape:version="0.91 r13725"
   sodipodi:docname="2022_Winter_Olympics_logo.svg">
  <defs
     id="defs4">
    <linearGradient
       inkscape:collect="always"
       id="linearGradient3269">
      <stop
         style="stop-color:#2b579e;stop-opacity:1"
         offset="0"
         id="stop3271" />
      <stop
         style="stop-color:#21558f;stop-opacity:1"
         offset="1"
         id="stop3273" />
    </linearGradient>
    <linearGradient
       id="linearGradient3255">
      <stop
         id="stop3257"
         offset="0"
         style="stop-color:#ffc606;stop-opacity:1" />
      <stop
         style="stop-color:#ffc606;stop-opacity:1"
         offset="0.2"
         id="stop3259" />
      <stop
         style="stop-color:#f9ba17;stop-opacity:1"
         offset="0.40000001"
         id="stop3261" />
      <stop
         style="stop-color:#dd812a;stop-opacity:1"
         offset="0.60000002"
         id="stop3263" />
      <stop
         style="stop-color:#c32f36;stop-opacity:1"
         offset="0.80000001"
         id="stop3265" />
      <stop
         id="stop3267"
         offset="1"
         style="stop-color:#b22731;stop-opacity:1" />
    </linearGradient>
    <linearGradient
       id="linearGradient3233">
      <stop
         style="stop-color:#275aa9;stop-opacity:1"
         offset="0"
         id="stop3235" />
      <stop
         id="stop3237"
         offset="0.2"
         style="stop-color:#2767af;stop-opacity:1" />
      <stop
         id="stop3239"
         offset="0.40000001"
         style="stop-color:#1279bc;stop-opacity:1" />
      <stop
         id="stop3241"
         offset="0.60000002"
         style="stop-color:#1090ca;stop-opacity:1" />
      <stop
         id="stop3243"
         offset="0.80000001"
         style="stop-color:#45a6d9;stop-opacity:1" />
      <stop
         style="stop-color:#5abaea;stop-opacity:1"
         offset="1"
         id="stop3245" />
    </linearGradient>
    <linearGradient
       id="linearGradient3211">
      <stop
         id="stop3213"
         offset="0"
         style="stop-color:#2762a8;stop-opacity:1" />
      <stop
         style="stop-color:#0176bc;stop-opacity:1"
         offset="0.2"
         id="stop3215" />
      <stop
         style="stop-color:#0195d5;stop-opacity:1"
         offset="0.40000001"
         id="stop3217" />
      <stop
         style="stop-color:#3ab3e8;stop-opacity:1"
         offset="0.60000002"
         id="stop3219" />
      <stop
         style="stop-color:#7dcbf1;stop-opacity:1"
         offset="0.80000001"
         id="stop3221" />
      <stop
         id="stop3223"
         offset="1"
         style="stop-color:#93e0fa;stop-opacity:1" />
    </linearGradient>
    <linearGradient
       id="linearGradient3187">
      <stop
         style="stop-color:#ffc61c;stop-opacity:1"
         offset="0"
         id="stop3189" />
      <stop
         id="stop3201"
         offset="0.2"
         style="stop-color:#ebcc33;stop-opacity:1" />
      <stop
         id="stop3199"
         offset="0.40000001"
         style="stop-color:#c8ca65;stop-opacity:1" />
      <stop
         id="stop3197"
         offset="0.60000002"
         style="stop-color:#97ca8f;stop-opacity:1" />
      <stop
         id="stop3195"
         offset="0.80000001"
         style="stop-color:#6dcad9;stop-opacity:1" />
      <stop
         style="stop-color:#60ccf3;stop-opacity:1"
         offset="1"
         id="stop3191" />
    </linearGradient>
    <linearGradient
       inkscape:collect="always"
       xlink:href="#linearGradient3187"
       id="linearGradient3193"
       x1="173.5"
       y1="300.36218"
       x2="545.50305"
       y2="300.36218"
       gradientUnits="userSpaceOnUse"
       gradientTransform="matrix(0.25789813,0,0,0.25789813,-28.617303,802.71072)" />
    <linearGradient
       inkscape:collect="always"
       xlink:href="#linearGradient3211"
       id="linearGradient3209"
       x1="160"
       y1="271.36218"
       x2="764.04059"
       y2="271.36218"
       gradientUnits="userSpaceOnUse"
       gradientTransform="matrix(0.25789813,0,0,0.25789813,-28.617303,802.71072)" />
    <linearGradient
       inkscape:collect="always"
       xlink:href="#linearGradient3233"
       id="linearGradient3231"
       x1="120"
       y1="153.86218"
       x2="442"
       y2="151.86218"
       gradientUnits="userSpaceOnUse"
       gradientTransform="matrix(0.25789813,0,0,0.25789813,-28.617303,802.71072)" />
    <linearGradient
       inkscape:collect="always"
       xlink:href="#linearGradient3255"
       id="linearGradient3253"
       x1="119.50105"
       y1="179.08531"
       x2="745.90033"
       y2="179.08531"
       gradientUnits="userSpaceOnUse"
       gradientTransform="matrix(0.25789813,0,0,0.25789813,-28.617303,802.71072)" />
    <linearGradient
       inkscape:collect="always"
       xlink:href="#linearGradient3269"
       id="linearGradient3275"
       x1="263.75082"
       y1="-19.258144"
       x2="463.15494"
       y2="-99.161209"
       gradientUnits="userSpaceOnUse"
       gradientTransform="matrix(0.25789813,0,0,0.25789813,-28.617303,802.71072)" />
    <clipPath
       clipPathUnits="userSpaceOnUse"
       id="clipPath3470">
      <rect
         style="opacity:0.575;fill:#ffffff;fill-opacity:1;stroke:#cfcfcf;stroke-opacity:0.56571428"
         id="rect3472"
         width="251.42862"
         height="122.68098"
         x="-39.236572"
         y="960.33905" />
    </clipPath>
  </defs>
  <sodipodi:namedview
     id="base"
     pagecolor="#ffffff"
     bordercolor="#666666"
     borderopacity="1.0"
     inkscape:pageopacity="0.0"
     inkscape:pageshadow="2"
     inkscape:zoom="1.4835225"
     inkscape:cx="174.99391"
     inkscape:cy="148.02826"
     inkscape:document-units="px"
     inkscape:current-layer="layer1"
     showgrid="false"
     showguides="true"
     inkscape:guide-bbox="true"
     fit-margin-top="0"
     fit-margin-left="0"
     fit-margin-right="0"
     fit-margin-bottom="0"
     inkscape:window-width="1366"
     inkscape:window-height="706"
     inkscape:window-x="-8"
     inkscape:window-y="-8"
     inkscape:window-maximized="1">
    <inkscape:grid
       type="xygrid"
       id="grid2996"
       empspacing="5"
       visible="true"
       enabled="true"
       snapvisiblegridlinesonly="true"
       originx="38.5625"
       originy="29.309717" />
  </sodipodi:namedview>
  <metadata
     id="metadata7">
    <rdf:RDF>
      <cc:Work
         rdf:about="">
        <dc:format>image/svg+xml</dc:format>
        <dc:type
           rdf:resource="http://purl.org/dc/dcmitype/StillImage" />
        <dc:title></dc:title>
      </cc:Work>
    </rdf:RDF>
  </metadata>
  <g
     inkscape:label="Layer 1"
     inkscape:groupmode="layer"
     id="layer1"
     transform="translate(38.5625,-960.33905)">
    <g
       id="g3438"
       clip-path="url(#clipPath3470)">
      <path
         sodipodi:nodetypes="ccccc"
         inkscape:connector-curvature="0"
         id="path3002"
         d="M 15.999072,857.73642 C 36.99028,828.93495 64.999718,811.57266 64.999718,811.57266 l 15.989684,-10.83172 28.746098,9.95848 c 0,0 -45.658905,7.66735 -93.736428,47.037 z"
         style="fill:#2b57a0;fill-opacity:1;stroke:none" />
      <path
         sodipodi:nodetypes="cccccc"
         inkscape:connector-curvature="0"
         id="path3000"
         d="m 50.81532,813.37795 c 33.000353,-5.13151 58.92018,-2.67853 58.92018,-2.67853 L 99.106638,795.32678 c -9.552098,-3.26032 -28.57168,-3.19596 -28.57168,-3.19596 l -20.49333,6.03114 z"
         style="fill:#c22634;fill-opacity:1;stroke:none" />
      <path
         sodipodi:nodetypes="cccc"
         inkscape:connector-curvature="0"
         id="path2998"
         d="m 91.04743,777.27221 c -24.57954,5.34605 -37.966367,11.00241 -51.149827,20.53011 l 10.917717,15.57563 c 11.804232,-14.7239 27.142462,-29.162 40.23211,-36.10574 z"
         style="fill:url(#linearGradient3275);fill-opacity:1;stroke:none" />
      <path
         sodipodi:nodetypes="cccccccc"
         inkscape:connector-curvature="0"
         id="path3006"
         d="m 2.165165,869.38422 c 68.121382,-55.31174 131.531425,-50.98686 131.531425,-50.98686 23.0406,0 29.91969,3.84785 29.91969,3.84785 0,0 -7.56448,-0.5957 -14.99784,-0.5957 0,0 -27.43358,-0.83599 -62.986873,14.42347 l -32.237265,10.05803 -33.01096,17.79497 z"
         style="fill:url(#linearGradient3253);fill-opacity:1;stroke:none" />
      <path
         sodipodi:nodetypes="cccccccccc"
         inkscape:connector-curvature="0"
         id="path3008"
         d="m 12.1306,880.94725 c 40.034103,-30.77134 67.487668,-27.56323 67.487668,-27.56323 19.23653,0 46.284622,6.38669 62.016592,6.38669 11.65279,0 13.21376,-3.21682 18.21704,-9.6103 3.77206,-5.00757 8.14185,-14.28016 8.14185,-21.33645 -3.14154,6.90935 -7.56675,10.17172 -22.10204,10.17172 -17.33205,0 -27.09836,-3.17396 -60.260142,-2.9227 l -31.72147,9.80013 -38.684718,21.92134 z"
         style="fill:url(#linearGradient3209);fill-opacity:1;stroke:none" />
      <path
         sodipodi:nodetypes="cccc"
         inkscape:connector-curvature="0"
         id="path3004"
         d="M 2.2015225,869.21289 C 47.310457,835.0902 85.631568,836.07298 85.631568,836.07298 c 0,0 -35.922883,14.53788 -73.500968,44.87427 z"
         style="fill:url(#linearGradient3231);fill-opacity:1;stroke:none" />
      <path
         sodipodi:nodetypes="cccccc"
         inkscape:connector-curvature="0"
         id="path3010"
         d="m 16.256973,880.68936 c 17.559635,-11.40027 38.153579,-16.36241 57.670969,-16.36241 20.440188,0 38.525038,7.33597 38.525038,7.33597 l -30.174087,7.73695 -8.25274,-0.7737 c -14.459248,-3.77153 -36.6451,-5.93701 -57.76918,2.06319 z"
         style="fill:url(#linearGradient3193);fill-opacity:1;stroke:none" />
      <path
         sodipodi:nodetypes="cccccc"
         inkscape:connector-curvature="0"
         id="path3012"
         d="m 43.85207,893.84216 c 33.148055,-23.47793 68.60091,-22.17924 68.60091,-22.17924 0,0 -27.44655,9.02813 -47.195365,36.10574 l -8.768535,1.28949 -9.54223,-11.34752 z"
         style="fill:#2babda;fill-opacity:1;stroke:none" />
      <path
         sodipodi:nodetypes="ccccc"
         inkscape:connector-curvature="0"
         id="path3014"
         d="m 43.85207,893.84216 c 14.283025,33.07092 50.548035,49.51644 50.548035,49.51644 2.177595,1.1833 2.643985,0.68031 3.610572,0 0,0 4.300743,-2.6103 13.454763,-16.36277 0,0 -45.571665,-15.77705 -67.61337,-33.15367 z"
         style="fill:#2b579e;fill-opacity:1;stroke:none" />
      <path
         inkscape:connector-curvature="0"
         id="path3016"
         d="m -26.626652,963.0347 c -7.42979,0 -11.935848,1.74887 -11.935848,1.74887 l 3.562218,4.9323 4.335912,-1.13636 c 0,0 -3.939053,9.11207 -6.769826,21.9697 0,0 3.151195,0.51579 6.834301,0.51579 8.403532,0 16.301474,-2.75925 18.584784,-9.94519 l -1.66022,-4.77918 c 0,0 -1.376383,-1.44264 -2.732108,-1.8617 3.539002,-2.29729 3.747582,-4.98872 3.747582,-4.98872 l -1.402321,-4.51321 c 0,0 -5.0182,-1.9423 -12.564474,-1.9423 z m 1.813346,4.78723 c 3.381519,0 8.389749,0.62057 8.389749,0.62057 -4.418399,3.59605 -9.026435,4.41651 -9.026435,4.41651 l 1.490973,4.44068 c 5.7771,0.0129 8.720181,2.42586 8.720181,2.42586 -4.287538,5.96366 -14.700193,5.48033 -14.700193,5.48033 2.593918,-10.06052 5.125725,-17.38395 5.125725,-17.38395 z"
         style="fill:#000000;stroke:none" />
      <path
         sodipodi:nodetypes="cccccccccccccc"
         inkscape:connector-curvature="0"
         id="path3049"
         d="m -7.679199,991.15035 -3.30432,-4.73888 c 3.3405067,-12.45161 7.554899,-21.3507 7.554899,-21.3507 6.3766425,-0.34915 13.2668,-0.0684 13.2668,-0.0684 l 1.390507,4.65022 c 0,0 -6.4003595,-0.3584 -11.2152345,0.61547 0,0 -0.8440925,2.13024 -1.8464075,5.06053 5.274795,-0.50584 9.3232325,-0.0456 9.3232325,-0.0456 l 1.61846,4.30829 c -8.3759075,0.3466 -12.6513325,1.25376 -12.6513325,1.25376 l -1.2537353,5.31128 c 0,0 4.0046053,0.52181 11.5115703,-0.66106 l 1.641255,4.80978 c 0,0 -7.6610175,0.85531 -16.035694,0.85531 z"
         style="fill:#000000;stroke:none" />
      <path
         sodipodi:nodetypes="ccccc"
         inkscape:connector-curvature="0"
         id="path3051"
         d="m 9.954585,991.09393 6.415217,0 c 3.425185,-15.45511 7.616053,-26.07994 7.616053,-26.07994 l -5.383623,0 c 0,0 -4.516939,8.98523 -8.647647,26.07994 z"
         style="fill:#000000;stroke:none" />
      <path
         sodipodi:nodetypes="cccccccc"
         inkscape:connector-curvature="0"
         id="path3053"
         d="m 10.450825,998.98172 6.33953,2.33578 c 0.799035,0.3683 1.268345,0.2457 1.926995,0.05 6.90897,-2.06108 8.152245,-7.35168 10.337178,-14.30947 l 6.045125,-22.00385 -6.544165,0 -6.157158,20.97806 c -2.29445,7.82939 -4.562857,14.40376 -11.947505,12.94938 z"
         style="fill:#000000;stroke:none" />
      <path
         style="fill:#000000;stroke:none"
         d="m 32.567413,991.09393 6.415217,0 c 3.425185,-15.45511 7.616055,-26.07994 7.616055,-26.07994 l -5.383625,0 c 0,0 -4.516937,8.98523 -8.647647,26.07994 z"
         id="path3055"
         inkscape:connector-curvature="0"
         sodipodi:nodetypes="ccccc" />
      <path
         sodipodi:nodetypes="ccccccccccc"
         inkscape:connector-curvature="0"
         id="path3057"
         d="m 43.73463,991.08148 c 2.737487,-13.24479 8.595842,-26.05138 8.595842,-26.05138 l 5.25882,0 c 0,0 0.655501,7.92172 3.523881,16.27568 2.57065,-9.12542 5.96585,-16.26762 5.96585,-16.26762 l 5.367505,0 c 0,0 -4.429788,10.55019 -7.603553,26.06611 l -6.461055,0 c 0,0 -3.016905,-6.65094 -4.385545,-15.35256 0,0 -2.298545,7.727 -3.970867,15.33417 z"
         style="fill:#000000;stroke:none" />
      <path
         sodipodi:nodetypes="ccccccccccccccc"
         inkscape:connector-curvature="0"
         id="path3059"
         d="m 76.024015,991.16126 c -2.553105,0 -3.544652,-0.68386 -3.544652,-0.68386 l -2.32511,-3.35089 c 0,0 -0.66106,-1.11738 -0.66106,-4.01195 0,-6.5853 5.802002,-18.47936 23.440117,-18.47936 l 1.86976,5.49645 c -10.613972,-1.00474 -21.54867,7.52883 -21.54867,13.89472 0,1.51121 1.088342,2.27952 2.940578,2.27952 5.584922,0 10.815685,-5.17505 11.853497,-7.11211 l 5.881163,2.21114 c -0.5389,5.26605 -3.360038,10.08611 -8.762885,13.36282 -0.71769,0.49598 -1.344205,0.7204 -2.495005,0.22323 l -3.922835,-1.58401 c 3.993847,-0.59478 6.662052,-5.55931 6.662052,-5.55931 0,0 -4.967035,3.31361 -9.38695,3.31361 z"
         style="fill:#000000;stroke:none" />
      <path
         sodipodi:nodetypes="ccccccccccccccc"
         inkscape:connector-curvature="0"
         id="path3076"
         d="m 110.38979,992.85892 -4.54545,-6.56028 c 13.2341,-8.79101 17.35432,-16.51927 17.35432,-16.51927 0,0 -6.50216,0.35658 -12.42338,3.62444 l -1.93759,-5.56203 c 0,0 4.96177,-3.3281 13.49475,-3.3281 2.86202,0 4.78699,0.54709 4.78699,0.54709 l 1.77802,5.2201 c -1.89294,4.8245 -8.66216,12.92487 -8.66216,12.92487 3.16864,-0.75229 9.07144,-0.0819 10.91889,2.23393 l 2.52658,0.98184 -0.20606,1.91782 -1.40871,-0.16424 c 0,0 -2.38485,-0.15957 -3.8296,-0.15957 -10.0331,0 -17.8466,4.8434 -17.8466,4.8434 z"
         style="fill:#000000;stroke:none" />
      <path
         sodipodi:nodetypes="ccccccccccccccccccccccccc"
         inkscape:connector-curvature="0"
         id="path3082"
         d="m 157.44008,991.95628 -4.52934,-6.51193 c 13.39883,-9.34248 17.13411,-16.98904 17.13411,-16.98904 -6.27015,0.11499 -12.12121,3.77176 -12.12121,3.77176 l -1.99871,-5.6254 c 0,0 4.88027,-3.11089 12.62089,-3.11089 2.42374,0 5.27079,0.49967 5.27079,0.49967 l 1.80529,5.54481 c -3.76443,7.1721 -8.25274,12.34688 -8.25274,12.34688 6.277,-0.57745 9.90621,1.45251 9.90621,1.45251 l 1.52996,1.68256 c 10.91333,-7.92491 14.51368,-14.33752 14.51368,-14.33752 0,0 -6.16823,0.003 -11.975,2.98194 l -1.95035,-5.49645 c 0,0 4.90317,-2.99807 13.10444,-2.99807 3.46688,0 5.14185,0.56416 5.14185,0.56416 l 1.85364,5.39974 c 0,0 -2.06026,4.43645 -8.2057,11.80119 0,0 2.53101,-0.24413 4.59513,-0.24413 7.29683,0 8.27102,1.50489 8.27102,1.50489 l 7.28346,5.34553 c 0,0 -3.89325,-1.74082 -10.29981,-1.74082 0,0 -9.29139,-0.47438 -20.72311,5.62031 l -4.46785,-6.67899 c 0,0 -10.00744,0.0204 -18.50665,5.21729 z"
         style="fill:#000000;stroke:none" />
      <g
         id="g3013"
         transform="matrix(0.45431702,0,0,0.45431703,7.653165,1009.8898)"
         style="fill:none;stroke:#000000;stroke-width:9.5">
        <path
           style="color:#000000;font-style:normal;font-variant:normal;font-weight:normal;font-stretch:normal;font-size:medium;line-height:normal;font-family:sans-serif;text-indent:0;text-align:start;text-decoration:none;text-decoration-line:none;letter-spacing:normal;word-spacing:normal;text-transform:none;direction:ltr;block-progression:tb;writing-mode:lr-tb;baseline-shift:baseline;text-anchor:start;display:inline;overflow:visible;visibility:visible;fill:#0885c2;fill-opacity:1;fill-rule:nonzero;stroke:none;enable-background:accumulate"
           d="M 54,0 C 24.232886,0 0,24.232886 0,54 0,83.767114 24.232886,108 54,108 83.767114,108 108,83.767114 108,54 108,24.232886 83.767114,0 54,0 Z m 0,9.5 C 78.632933,9.5 98.5,29.367067 98.5,54 98.5,78.632933 78.632933,98.5 54,98.5 29.367067,98.5 9.5,78.632933 9.5,54 9.5,29.367067 29.367067,9.5 54,9.5 Z"
           id="circle3015"
           inkscape:connector-curvature="0" />
        <path
           style="color:#000000;font-style:normal;font-variant:normal;font-weight:normal;font-stretch:normal;font-size:medium;line-height:normal;font-family:sans-serif;text-indent:0;text-align:start;text-decoration:none;text-decoration-line:none;letter-spacing:normal;word-spacing:normal;text-transform:none;direction:ltr;block-progression:tb;writing-mode:lr-tb;baseline-shift:baseline;text-anchor:start;display:inline;overflow:visible;visibility:visible;fill:#000000;fill-opacity:1;fill-rule:nonzero;stroke:none;enable-background:accumulate"
           d="m 171,0 c -29.76711,0 -54,24.232886 -54,54 0,29.767114 24.23289,54 54,54 29.76711,0 54,-24.232886 54,-54 C 225,24.232886 200.76711,0 171,0 Z m 0,9.5 c 24.63293,0 44.5,19.867067 44.5,44.5 0,24.632933 -19.86707,44.5 -44.5,44.5 -24.63293,0 -44.5,-19.867067 -44.5,-44.5 0,-24.632933 19.86707,-44.5 44.5,-44.5 z"
           id="circle3017"
           inkscape:connector-curvature="0" />
        <path
           style="color:#000000;font-style:normal;font-variant:normal;font-weight:normal;font-stretch:normal;font-size:medium;line-height:normal;font-family:sans-serif;text-indent:0;text-align:start;text-decoration:none;text-decoration-line:none;letter-spacing:normal;word-spacing:normal;text-transform:none;direction:ltr;block-progression:tb;writing-mode:lr-tb;baseline-shift:baseline;text-anchor:start;display:inline;overflow:visible;visibility:visible;fill:#ed334e;fill-opacity:1;fill-rule:nonzero;stroke:none;enable-background:accumulate"
           d="m 288,0 c -29.76711,0 -54,24.232886 -54,54 0,29.767114 24.23289,54 54,54 29.76711,0 54,-24.232886 54,-54 C 342,24.232886 317.76711,0 288,0 Z m 0,9.5 c 24.63293,0 44.5,19.867067 44.5,44.5 0,24.632933 -19.86707,44.5 -44.5,44.5 -24.63293,0 -44.5,-19.867067 -44.5,-44.5 0,-24.632933 19.86707,-44.5 44.5,-44.5 z"
           id="circle3019"
           inkscape:connector-curvature="0" />
        <path
           style="color:#000000;font-style:normal;font-variant:normal;font-weight:normal;font-stretch:normal;font-size:medium;line-height:normal;font-family:sans-serif;text-indent:0;text-align:start;text-decoration:none;text-decoration-line:none;letter-spacing:normal;word-spacing:normal;text-transform:none;direction:ltr;block-progression:tb;writing-mode:lr-tb;baseline-shift:baseline;text-anchor:start;display:inline;overflow:visible;visibility:visible;fill:#fbb132;fill-opacity:1;fill-rule:nonzero;stroke:none;enable-background:accumulate"
           d="m 112.5,50 c -29.767114,0 -54,24.232886 -54,54 0,29.76711 24.232886,54 54,54 29.76711,0 54,-24.23289 54,-54 0,-29.767114 -24.23289,-54 -54,-54 z m 0,9.5 c 24.63293,0 44.5,19.867067 44.5,44.5 0,24.63293 -19.86707,44.5 -44.5,44.5 C 87.867067,148.5 68,128.63293 68,104 68,79.367067 87.867067,59.5 112.5,59.5 Z"
           id="circle3021"
           inkscape:connector-curvature="0" />
        <path
           style="color:#000000;font-style:normal;font-variant:normal;font-weight:normal;font-stretch:normal;font-size:medium;line-height:normal;font-family:sans-serif;text-indent:0;text-align:start;text-decoration:none;text-decoration-line:none;letter-spacing:normal;word-spacing:normal;text-transform:none;direction:ltr;block-progression:tb;writing-mode:lr-tb;baseline-shift:baseline;text-anchor:start;display:inline;overflow:visible;visibility:visible;fill:#1c8b3c;fill-opacity:1;fill-rule:nonzero;stroke:none;enable-background:accumulate"
           d="m 229.5,50 c -29.76711,0 -54,24.232886 -54,54 0,29.76711 24.23289,54 54,54 29.76711,0 54,-24.23289 54,-54 0,-29.767114 -24.23289,-54 -54,-54 z m 0,9.5 c 24.63293,0 44.5,19.867067 44.5,44.5 0,24.63293 -19.86707,44.5 -44.5,44.5 -24.63293,0 -44.5,-19.86707 -44.5,-44.5 0,-24.632933 19.86707,-44.5 44.5,-44.5 z"
           id="circle3023"
           inkscape:connector-curvature="0" />
        <path
           style="color:#000000;font-style:normal;font-variant:normal;font-weight:normal;font-stretch:normal;font-size:medium;line-height:normal;font-family:sans-serif;text-indent:0;text-align:start;text-decoration:none;text-decoration-line:none;letter-spacing:normal;word-spacing:normal;text-transform:none;direction:ltr;block-progression:tb;writing-mode:lr-tb;baseline-shift:baseline;text-anchor:start;display:inline;overflow:visible;visibility:visible;fill:#0885c2;fill-opacity:1;fill-rule:nonzero;stroke:none;enable-background:accumulate"
           d="m 97.199219,21.599609 -7.59961,5.701172 c 11.879331,15.839111 11.879331,37.559327 0,53.398438 l 7.59961,5.701172 c 14.387331,-19.183111 14.387331,-45.617671 0,-64.800782 z"
           id="path3025"
           inkscape:connector-curvature="0" />
        <path
           style="color:#000000;font-style:normal;font-variant:normal;font-weight:normal;font-stretch:normal;font-size:medium;line-height:normal;font-family:sans-serif;text-indent:0;text-align:start;text-decoration:none;text-decoration-line:none;letter-spacing:normal;word-spacing:normal;text-transform:none;direction:ltr;block-progression:tb;writing-mode:lr-tb;baseline-shift:baseline;text-anchor:start;display:inline;overflow:visible;visibility:visible;fill:#000000;fill-opacity:1;fill-rule:nonzero;stroke:none;enable-background:accumulate"
           d="m 214.19922,21.599609 -7.59961,5.701172 c 11.87933,15.839111 11.87933,37.559327 0,53.398438 l 7.59961,5.701172 c 14.38733,-19.183111 14.38733,-45.617671 0,-64.800782 z m -69.89844,68 -5.70117,7.59961 C 147.94626,104.20921 159.31669,108 171,108 l 0,-9.5 c -9.62915,0 -18.9959,-3.1229 -26.69922,-8.900391 z"
           id="path3027"
           inkscape:connector-curvature="0" />
        <path
           style="color:#000000;font-style:normal;font-variant:normal;font-weight:normal;font-stretch:normal;font-size:medium;line-height:normal;font-family:sans-serif;text-indent:0;text-align:start;text-decoration:none;text-decoration-line:none;letter-spacing:normal;word-spacing:normal;text-transform:none;direction:ltr;block-progression:tb;writing-mode:lr-tb;baseline-shift:baseline;text-anchor:start;display:inline;overflow:visible;visibility:visible;fill:#ed334e;fill-opacity:1;fill-rule:nonzero;stroke:none;enable-background:accumulate"
           d="m 261.30078,89.599609 -5.70117,7.59961 C 264.94626,104.20921 276.31669,108 288,108 l 0,-9.5 c -9.62915,0 -18.9959,-3.1229 -26.69922,-8.900391 z"
           id="path3029"
           inkscape:connector-curvature="0" />
      </g>
      <path
         inkscape:connector-curvature="0"
         id="path3137"
         d="m 145.33498,964.84805 c -6.90588,2.10342 -14.90973,9.18771 -14.90973,16.79561 0,1.98289 0.41064,5.39518 3.94906,9.21986 l 6.28627,1.78111 c 7.47611,-1.42533 14.21664,-9.12222 14.21664,-17.22276 0,-5.51298 -3.72341,-8.60735 -3.72341,-8.60735 l -5.81883,-1.96647 z m 1.86977,3.56221 c 0,0 1.54738,2.97968 1.54738,6.88266 0,9.20265 -10.47711,13.70084 -10.47711,13.70084 0,0 -1.80528,-3.02894 -1.80528,-6.93101 0,-9.08191 10.73501,-13.65249 10.73501,-13.65249 z"
         style="fill:#000000;stroke:none" />
    </g>
  </g>
</svg>
